<svg xmlns="http://www.w3.org/2000/svg" viewBox="0 0 94 44" width="80" height="37">
	<style>
		tspan { white-space:pre }
		.shp0 { fill: #dcdcdc } 
	</style>
	<g id="Layer">
		<path id="Layer" fill-rule="evenodd" class="shp0" d="M44.2 3.9C54.1 3.9 62 12 62 22.1C62 32.1 54 40.3 44.2 40.3C34.3 40.2 26.3 32.1 26.3 22.1C26.3 12.1 34.3 3.9 44.2 3.9ZM3.4 3.2L25.9 3.2L26.6 13.5L14 13.5L14 18.4L24.3 18.4L24.3 28.5L14 28.5L14 40.7L3.4 40.7L3.4 3.2ZM90.6 40.7L78.9 40.7L73.5 31.4L68.1 40.7L56.7 40.7L67.8 21.4L57.4 3.4L68.9 3.4L73.6 11.4L78.2 3.4L89.6 3.4L79.3 21.3L90.6 40.7ZM47.3 14.6C47.3 12.8 46 11.3 44.2 11.3C42.6 11.3 41.2 12.8 41.2 14.6L41.2 29.5C41.2 31.2 42.6 32.5 44.2 32.5C46 32.5 47.3 31.3 47.3 29.5L47.3 14.6Z" />
	</g>
</svg>