<svg xmlns="http://www.w3.org/2000/svg" viewBox="0 0 604 215" width="200" height="71">
	<style>
		tspan { white-space:pre }
		.shp0 { fill: #c3c3c3 } 
		.shp1 { fill: #dcdcdc } 
	</style>
	<g id="Layer">
		<g id="Layer">
			<path id="Layer" fill-rule="evenodd" class="shp0" d="M361.1 12.2C364 14.3 374.1 24.9 361.1 26.5C342.5 28.7 307.1 30 248.4 79.1C226.2 97.7 176.4 147.8 149.7 210.1C149.4 210.9 148.5 211.3 147.7 211.1C145.3 210.4 141 207.8 143.2 197.8C146.2 184.3 173.2 114 244.6 52C267.9 31.8 323.5 -15.8 361.1 12.2ZM155.7 19.5C155.7 18.1 156.2 16.4 159.2 17.3C161.3 17.9 163.6 19.6 164.9 21C172.3 28.6 195.5 56.9 180.8 100.8C180.8 100.8 177 111.6 172.3 103.5C171.4 102 170.4 98.3 169.5 94C166.1 78.8 158.6 42.8 156.4 25.9C156.3 24.8 155.8 20.9 155.7 19.5Z" />
			<path id="Layer" fill-rule="evenodd" class="shp1" d="M24.1 65.2C30.3 63.7 39.5 62.8 48.5 62.8C58 62.8 67.9 64.8 74.5 70C80.4 74.5 83.8 81.1 83.8 90.2C83.8 102.2 78.1 112 70.9 117.7C62.8 124.2 51.2 127.3 39.1 127.3C35.5 127.3 32.3 126.8 29.6 126.5L22.3 165L5.1 165L24.1 65.2ZM32.4 112.2C35.3 112.8 37.8 113.1 41.6 113.1C56.3 113.1 66.3 103.6 66.3 91.6C66.3 80.8 58.6 76.9 48.7 76.9C44.3 76.9 41 77.2 38.9 77.8L32.4 112.2Z" />
			<path id="Layer" fill-rule="evenodd" class="shp1" d="M123.3 165C123.3 160.6 123.9 154.8 124.5 148.6L124.2 148.6C117 162 107.2 166.7 97.9 166.7C84.8 166.7 76.2 156.5 76.2 141.7C76.2 116.7 93.7 90.1 127.8 90.1C135.8 90.1 144.4 91.6 150.1 93.4L142.4 131.6C140.3 142.4 139.1 156.3 139.4 165L123.3 165ZM130.3 104.4C128.5 103.9 126.2 103.6 123.1 103.6C107 103.6 94.4 121.8 94.4 138.5C94.4 146.2 97.3 152.5 104.9 152.5C113.2 152.5 123.1 142.3 126.6 123.6L130.3 104.4Z" />
			<path id="Layer" fill-rule="evenodd" class="shp1" d="M303.8 120.3C303.8 145.3 286.5 166.6 261.5 166.6C243 166.6 231.6 153.8 231.6 136.3C231.6 111.5 248.9 90 273.9 90C293.6 90.1 303.8 104.2 303.8 120.3ZM249.6 136C249.6 146.1 254.9 153.2 263.9 153.2C277 153.2 285.7 135.1 285.7 120.5C285.7 113 282.2 103.6 271.7 103.6C257.8 103.6 249.6 122.3 249.6 136Z" />
			<path id="Layer" class="shp1" d="M307.1 165L316.6 114.4C318.4 105.7 319.5 98 320.4 91.7L336 91.7L334.3 104.8L334.6 104.8C341.4 95 350.7 90.1 360.9 90.1C371.4 90.1 379.6 96.4 379.6 110.3C379.6 113.6 379 118.7 378.3 122.3L370.3 165L352.7 165L360.5 123.6C361 120.9 361.4 117.7 361.4 114.9C361.4 108.7 359.1 104.4 352.2 104.4C344.2 104.4 334 114 330.8 131.2L324.5 165.1L307.1 165.1L307.1 165Z" />
			<path id="Layer" fill-rule="evenodd" class="shp1" d="M443 160.8C435.8 164.6 426 166.7 417.1 166.7C396.8 166.7 387 154.2 387 136.3C387 114.2 403.2 90.1 428.5 90.1C442.9 90.1 452.1 98.4 452.1 110.7C452.1 129.5 432.4 135.5 404.1 134.9C403.8 137.5 404.4 142.4 406.1 145.3C409 150.3 414.2 152.8 421.1 152.8C429.4 152.8 436 150.7 441.3 148L443 160.8ZM426.3 103.2C415.3 103.2 408.1 113 406 121.9C424.1 122 435.7 119.6 435.7 110.8C435.6 106 431.9 103.2 426.3 103.2Z" />
			<path id="Layer" fill-rule="evenodd" class="shp1" d="M511.2 160.8C504 164.6 494.2 166.7 485.3 166.7C465 166.7 455.2 154.2 455.2 136.3C455.2 114.2 471.4 90.1 496.7 90.1C511.1 90.1 520.3 98.4 520.3 110.7C520.3 129.5 500.6 135.5 472.3 134.9C472 137.5 472.6 142.4 474.3 145.3C477.2 150.3 482.4 152.8 489.3 152.8C497.6 152.8 504.2 150.7 509.5 148L511.2 160.8ZM494.4 103.2C483.4 103.2 476.2 113 474.1 121.9C492.2 122 503.8 119.6 503.8 110.8C503.8 106 500 103.2 494.4 103.2Z" />
			<path id="Layer" class="shp1" d="M521.4 165L530 119.8C532 109.4 533 98.1 533.7 91.7L548.9 91.7C548.5 96.7 548 101.8 547.2 107.1L547.6 107.1C552.6 97.3 560.5 90.1 570.5 90.1C571.9 90.1 573.2 90.3 574.4 90.3L570.9 107.5C570 107.3 568.8 107.3 567.6 107.3C555.1 107.3 547.1 119.9 544.3 135.6L538.7 165.1L521.4 165.1L521.4 165Z" />
			<path id="Layer" fill-rule="evenodd" class="shp1" d="M586.6 94C587.2 93.9 588.1 93.8 589 93.8C590.3 93.8 591.2 94.1 591.8 94.6C592.3 95 592.6 95.7 592.6 96.5C592.6 97.8 591.8 98.6 590.8 99C591.5 99.3 592 100 592.2 101C592.5 102.3 592.7 103.3 592.9 103.7L591.6 103.7C591.4 103.4 591.2 102.6 591 101.4C590.7 100.1 590.2 99.6 589 99.5L587.8 99.5L587.8 103.7L586.5 103.7L586.5 94L586.6 94ZM589.1 98.4C590.4 98.4 591.3 97.7 591.3 96.6C591.3 95.4 590.4 94.8 589.1 94.8C588.5 94.8 588.1 94.8 587.9 94.9L587.9 98.4L589.1 98.4Z" />
			<path id="Layer" fill-rule="evenodd" class="shp1" d="M598.2 98.8C598.2 103.6 594.3 107.5 589.5 107.5C584.7 107.5 580.8 103.6 580.8 98.8C580.8 94 584.7 90.1 589.5 90.1C594.2 90.1 598.1 93.9 598.2 98.8ZM582.2 98.7C582.2 102.7 585.4 106 589.5 106C593.5 106 596.8 102.8 596.8 98.7C596.8 94.7 593.5 91.4 589.5 91.4C585.4 91.4 582.1 94.7 582.2 98.7Z" />
		</g>
	</g>
</svg>