<svg xmlns="http://www.w3.org/2000/svg" viewBox="0 0 327 107" width="200" height="65">
	<defs>
		<clipPath clipPathUnits="userSpaceOnUse" id="cp1">
			<path d="M-174.69 163.79L502.43 163.79L502.43 -56.17L-174.69 -56.17L-174.69 163.79Z" />
		</clipPath>
	</defs>
	<style>
		tspan { white-space:pre }
		.shp0 { fill: #dcdcdc } 
		.shp1 { fill: #c3c3c3 } 
	</style>
	<g id="Layer">
		<g id="Clip-Path" clip-path="url(#cp1)">
			<g id="Layer">
				<path id="Layer" class="shp0" d="M68.17 21.66C64.7 17.7 58.41 16 50.37 16L27.04 16C26.65 16 26.25 16.07 25.88 16.21C25.51 16.34 25.17 16.54 24.87 16.8C24.57 17.06 24.32 17.36 24.12 17.71C23.93 18.05 23.8 18.43 23.74 18.82L14.03 80.44C13.98 80.72 14 81.01 14.08 81.29C14.16 81.57 14.3 81.83 14.48 82.05C14.67 82.27 14.91 82.45 15.17 82.57C15.43 82.69 15.72 82.75 16.01 82.75L30.41 82.75L34.03 59.8L33.92 60.52C33.98 60.13 34.11 59.76 34.3 59.41C34.49 59.07 34.74 58.76 35.04 58.51C35.34 58.25 35.68 58.05 36.05 57.91C36.42 57.78 36.81 57.71 37.2 57.7L44.05 57.7C57.5 57.7 68.03 52.24 71.1 36.44C71.19 35.98 71.27 35.52 71.34 35.08C72.25 29.24 71.33 25.26 68.18 21.66" />
				<path id="Layer" fill-rule="evenodd" class="shp0" d="M242.66 35.89C248.05 35.89 252.11 37.32 254.4 40.01C256.48 42.46 257.17 45.96 256.45 50.4C254.85 60.58 248.73 65.71 238.12 65.71L233.02 65.71C231.92 65.71 230.98 66.52 230.81 67.6L228.96 79.32C228.84 80.08 228.19 80.64 227.42 80.64L219.15 80.64C218.96 80.64 218.77 80.6 218.59 80.51C218.41 80.43 218.26 80.31 218.13 80.17C218.01 80.02 217.91 79.85 217.86 79.66C217.81 79.47 217.8 79.28 217.83 79.09L224.33 37.79C224.38 37.53 224.46 37.27 224.59 37.04C224.72 36.81 224.89 36.61 225.09 36.43C225.29 36.26 225.52 36.13 225.77 36.04C226.02 35.94 226.28 35.9 226.55 35.9L242.66 35.9M244.51 50.98C244.83 48.95 244.58 47.48 243.73 46.49C242.32 44.84 239.57 44.84 236.66 44.84L235.55 44.84C234.89 44.84 234.33 45.32 234.22 45.97L232.52 56.76L234.95 56.76C239.22 56.76 243.63 56.76 244.51 50.98Z" />
				<path id="Layer" fill-rule="evenodd" class="shp0" d="M127.77 35.89C133.16 35.89 137.22 37.32 139.51 40.01C141.59 42.46 142.29 45.96 141.57 50.4C139.97 60.58 133.84 65.72 123.23 65.72L118.14 65.72C117.03 65.72 116.1 66.52 115.93 67.61L114.17 78.75C113.99 79.84 113.06 80.64 111.96 80.64L104.26 80.64C104.07 80.64 103.88 80.6 103.7 80.51C103.53 80.43 103.37 80.32 103.24 80.17C103.12 80.02 103.03 79.85 102.97 79.66C102.92 79.47 102.91 79.28 102.94 79.09L109.45 37.79C109.62 36.7 110.56 35.9 111.66 35.9L127.77 35.9M129.63 50.98C129.95 48.95 129.69 47.48 128.85 46.49C127.43 44.84 124.68 44.84 121.78 44.84L120.66 44.84C120 44.84 119.44 45.32 119.34 45.97L117.63 56.76L120.06 56.76C124.33 56.76 128.75 56.76 129.63 50.98ZM175.91 50.8C176.11 50.8 176.3 50.84 176.48 50.92C176.65 51 176.81 51.12 176.93 51.27C177.06 51.41 177.15 51.59 177.21 51.77C177.26 51.96 177.27 52.16 177.24 52.35L173.07 78.75C172.9 79.84 171.96 80.64 170.86 80.64L163.92 80.64C163.72 80.64 163.53 80.6 163.35 80.52C163.18 80.44 163.02 80.32 162.89 80.17C162.77 80.02 162.68 79.85 162.62 79.66C162.57 79.48 162.56 79.28 162.59 79.09L162.93 76.95C162.93 76.95 159.12 81.36 152.25 81.36C148.25 81.36 144.89 80.2 142.54 77.44C139.98 74.42 138.93 70.1 139.67 65.58C141.09 56.53 148.36 50.07 156.89 50.07C160.6 50.07 164.33 50.88 166 53.31L166.54 54.09L166.87 51.93C166.9 51.77 166.95 51.62 167.03 51.48C167.1 51.34 167.21 51.22 167.33 51.12C167.45 51.01 167.59 50.93 167.74 50.88C167.89 50.82 168.04 50.8 168.2 50.8L175.91 50.8M165.17 65.81C165.5 63.68 165.04 61.74 163.86 60.36C162.68 58.98 160.91 58.26 158.72 58.26C154.32 58.26 150.77 61.31 150.07 65.68C149.71 67.82 150.14 69.74 151.28 71.09C152.43 72.46 154.22 73.18 156.46 73.18C160.92 73.18 164.42 70.22 165.17 65.81Z" />
				<path id="Layer" fill-rule="evenodd" class="shp0" d="M290.8 50.8C290.99 50.8 291.18 50.84 291.36 50.92C291.54 51 291.69 51.12 291.82 51.27C291.95 51.41 292.04 51.59 292.09 51.77C292.15 51.96 292.16 52.16 292.13 52.35L287.96 78.75C287.78 79.84 286.84 80.64 285.74 80.64L278.8 80.64C278.61 80.64 278.42 80.6 278.24 80.52C278.06 80.44 277.91 80.32 277.78 80.17C277.66 80.02 277.56 79.85 277.51 79.66C277.46 79.48 277.45 79.28 277.48 79.09L277.82 76.95C277.82 76.95 274.01 81.36 267.14 81.36C263.14 81.36 259.78 80.2 257.43 77.44C254.87 74.42 253.82 70.1 254.56 65.58C255.97 56.53 263.25 50.07 271.77 50.07C275.49 50.07 279.21 50.88 280.88 53.31L281.42 54.09L281.76 51.93C281.78 51.77 281.84 51.62 281.91 51.48C281.99 51.34 282.09 51.22 282.21 51.12C282.33 51.01 282.47 50.93 282.62 50.88C282.77 50.82 282.93 50.8 283.09 50.8L290.8 50.8M280.05 65.81C280.39 63.68 279.92 61.74 278.74 60.36C277.57 58.98 275.79 58.26 273.6 58.26C269.2 58.26 265.65 61.31 264.96 65.68C264.6 67.82 265.02 69.74 266.17 71.09C267.32 72.46 269.11 73.18 271.35 73.18C275.81 73.18 279.3 70.22 280.05 65.81Z" />
				<path id="Layer" class="shp0" d="M217 50.8L209.24 50.8C208.5 50.8 207.81 51.17 207.39 51.78L196.7 67.53L192.16 52.39C192.09 52.17 191.99 51.95 191.85 51.75C191.72 51.56 191.55 51.38 191.36 51.24C191.16 51.1 190.95 50.99 190.72 50.91C190.5 50.83 190.26 50.8 190.02 50.8L182.4 50.8C182.18 50.8 181.97 50.85 181.78 50.94C181.59 51.04 181.43 51.18 181.31 51.36C181.18 51.53 181.1 51.73 181.07 51.94C181.04 52.16 181.06 52.37 181.13 52.57L189.66 77.63L181.63 88.96C181.49 89.16 181.41 89.4 181.39 89.64C181.37 89.89 181.43 90.13 181.54 90.35C181.65 90.57 181.82 90.75 182.03 90.88C182.24 91.01 182.48 91.08 182.73 91.08L190.48 91.08C191.21 91.08 191.9 90.72 192.32 90.12L218.1 52.91C218.24 52.7 218.32 52.47 218.33 52.22C218.35 51.98 218.3 51.74 218.18 51.52C218.07 51.3 217.9 51.12 217.69 50.99C217.48 50.86 217.24 50.8 217 50.8" />
				<path id="Layer" class="shp0" d="M299.89 37.03L293.28 79.09C293.25 79.28 293.26 79.48 293.31 79.66C293.37 79.85 293.46 80.02 293.58 80.17C293.71 80.32 293.87 80.44 294.04 80.52C294.22 80.6 294.41 80.64 294.61 80.64L301.25 80.64C302.35 80.64 303.29 79.84 303.46 78.75L309.98 37.45C310.01 37.26 310 37.06 309.95 36.87C309.9 36.69 309.8 36.51 309.68 36.37C309.55 36.22 309.4 36.1 309.22 36.02C309.04 35.94 308.85 35.9 308.66 35.9L301.22 35.9C301.06 35.9 300.9 35.92 300.75 35.98C300.6 36.03 300.46 36.11 300.34 36.22C300.22 36.32 300.12 36.44 300.04 36.58C299.97 36.72 299.92 36.87 299.89 37.03" />
				<path id="Layer" class="shp0" d="M68.17 21.66C64.7 17.7 58.41 16 50.37 16L27.04 16C26.65 16 26.25 16.07 25.88 16.21C25.51 16.34 25.17 16.54 24.87 16.8C24.57 17.06 24.32 17.36 24.12 17.71C23.93 18.05 23.8 18.43 23.74 18.82L14.03 80.44C13.98 80.72 14 81.01 14.08 81.29C14.16 81.57 14.3 81.83 14.48 82.05C14.67 82.27 14.91 82.45 15.17 82.57C15.43 82.69 15.72 82.75 16.01 82.75L30.41 82.75L34.03 59.8L33.92 60.52C33.98 60.13 34.11 59.76 34.3 59.41C34.49 59.07 34.74 58.76 35.04 58.51C35.34 58.25 35.68 58.05 36.05 57.91C36.42 57.78 36.81 57.71 37.2 57.7L44.05 57.7C57.5 57.7 68.03 52.24 71.1 36.44C71.19 35.98 71.27 35.52 71.34 35.08C72.25 29.24 71.33 25.26 68.18 21.66" />
				<path id="Layer" class="shp0" d="M37.91 35.15C37.97 34.81 38.08 34.48 38.25 34.18C38.42 33.88 38.64 33.61 38.9 33.39C39.17 33.17 39.47 32.99 39.79 32.87C40.11 32.75 40.45 32.69 40.8 32.69L59.09 32.69C61.26 32.69 63.28 32.83 65.12 33.12C65.38 33.16 65.63 33.21 65.88 33.26C66.13 33.31 66.38 33.36 66.63 33.41C66.88 33.47 67.13 33.53 67.38 33.59C67.62 33.66 67.87 33.72 68.12 33.79C68.39 33.87 68.67 33.96 68.94 34.05C69.22 34.14 69.49 34.24 69.76 34.35C70.03 34.46 70.29 34.57 70.56 34.69C70.82 34.81 71.08 34.94 71.34 35.08C72.25 29.23 71.33 25.26 68.17 21.66C64.69 17.7 58.41 16 50.37 16L27.04 16C26.64 16 26.25 16.07 25.88 16.21C25.51 16.35 25.17 16.55 24.87 16.8C24.57 17.06 24.32 17.37 24.13 17.71C23.93 18.05 23.8 18.43 23.74 18.82L14.03 80.43C13.98 80.72 14 81.01 14.08 81.29C14.15 81.57 14.29 81.83 14.48 82.05C14.67 82.27 14.9 82.44 15.16 82.56C15.43 82.69 15.71 82.75 16 82.75L30.41 82.75L34.03 59.8L37.91 35.15Z" />
				<path id="Layer" class="shp0" d="M71.34 35.07C71.32 35.19 71.3 35.3 71.28 35.42C71.26 35.53 71.24 35.64 71.22 35.76C71.21 35.87 71.18 35.99 71.16 36.1C71.14 36.21 71.12 36.33 71.1 36.44C68.02 52.24 57.49 57.7 44.05 57.7L37.2 57.7C36.81 57.7 36.42 57.77 36.05 57.91C35.68 58.05 35.34 58.25 35.04 58.5C34.74 58.76 34.49 59.07 34.3 59.41C34.1 59.76 33.98 60.13 33.92 60.52L30.41 82.75L29.41 89.05C29.37 89.3 29.39 89.56 29.46 89.8C29.53 90.05 29.65 90.27 29.81 90.46C29.98 90.66 30.18 90.81 30.41 90.92C30.64 91.02 30.89 91.08 31.14 91.08L43.29 91.08C44.72 91.08 45.95 90.03 46.17 88.61L46.29 87.99L48.58 73.49L48.72 72.69C48.78 72.35 48.89 72.02 49.06 71.72C49.23 71.42 49.45 71.15 49.71 70.92C49.98 70.7 50.28 70.52 50.6 70.4C50.92 70.28 51.27 70.22 51.61 70.22L53.43 70.22C65.19 70.22 74.4 65.45 77.09 51.62C78.21 45.85 77.63 41.03 74.66 37.64C74.43 37.38 74.18 37.13 73.92 36.89C73.67 36.65 73.4 36.42 73.12 36.21C72.84 35.99 72.55 35.79 72.25 35.6C71.96 35.41 71.65 35.24 71.34 35.07" />
				<path id="Layer" class="shp1" d="M68.12 33.79C67.65 33.65 67.16 33.53 66.67 33.42C66.17 33.31 65.65 33.21 65.12 33.13C63.28 32.83 61.26 32.69 59.09 32.69L40.8 32.69C40.45 32.69 40.11 32.75 39.79 32.87C39.46 32.99 39.16 33.16 38.9 33.39C38.64 33.61 38.42 33.88 38.25 34.18C38.08 34.48 37.97 34.81 37.91 35.15L34.03 59.8L33.92 60.52C33.98 60.13 34.1 59.76 34.3 59.41C34.49 59.07 34.74 58.76 35.04 58.5C35.34 58.25 35.68 58.05 36.05 57.91C36.42 57.77 36.81 57.7 37.2 57.7L44.05 57.7C57.49 57.7 68.02 52.24 71.1 36.44C71.19 35.97 71.27 35.52 71.34 35.07C71.14 34.97 70.93 34.87 70.72 34.77C70.52 34.67 70.31 34.58 70.1 34.49C69.88 34.4 69.67 34.31 69.46 34.23C69.24 34.15 69.03 34.08 68.81 34.01C68.58 33.93 68.35 33.86 68.12 33.79" />
			</g>
		</g>
	</g>
</svg>