<svg width="198" height="40" viewBox="0 0 198 40" fill="none" xmlns="http://www.w3.org/2000/svg">
<path d="M23.7225 37.1642L33.3086 34.5939L30.2125 27.1224L33.8285 24.3301L32.4382 22.5251L27.4377 26.3805L30.2067 33.0634L23.1325 34.9619L23.7225 37.1642ZM15.4449 33.8286L17.2499 32.4383L13.3945 27.4379L6.71166 30.2068L4.81313 23.1326L2.61083 23.7226L5.18116 33.3087L12.6526 30.2127L15.4449 33.8286ZM7.33672 17.2501L12.3371 13.3946L9.56822 6.71179L16.6424 4.81327L16.0524 2.61096L6.46632 5.18129L9.56237 12.6527L5.94641 15.445L7.33672 17.2501ZM34.9559 16.6426L37.1582 16.0525L34.5879 6.46646L27.1164 9.56251L24.3242 5.94654L22.5191 7.33685L26.3746 12.3373L33.0574 9.56836L34.9559 16.6426Z" fill="#6179FF"/>
<path d="M18.9792 39.7698L22.0753 32.2983L26.6084 32.8825L26.9005 30.6218L20.6383 29.8156L17.8693 36.4985L11.5253 32.8416L10.3862 34.8161L18.9792 39.7756V39.7698ZM34.8159 29.3892L39.7754 20.7962L32.304 17.7001L32.8881 13.1729L30.6274 12.8808L29.8213 19.143L36.5041 21.9119L32.8472 28.256L34.8217 29.3951L34.8159 29.3892ZM9.1536 26.8948L9.95975 20.6326L3.27693 17.8637L6.93379 11.5197L4.95932 10.3806L-0.000212241 18.9736L7.47121 22.0696L6.88705 26.5969L9.14776 26.889L9.1536 26.8948ZM19.1428 9.95996L21.9117 3.27714L28.2557 6.93401L29.3948 4.95953L20.8018 0L17.7058 7.47143L13.1785 6.88726L12.8864 9.14797L19.1486 9.95412L19.1428 9.95996Z" fill="#6179FF"/>
<path d="M60.2154 16.4505C59.8654 14.6367 58.1789 13.5548 56.4288 13.5548C54.7105 13.5548 53.3104 14.4458 53.3104 15.9413C53.3422 17.4687 55.2833 18.0733 57.0652 18.4233C61.2655 19.187 63.9384 20.3007 63.9384 23.6101C63.9384 26.9194 60.6291 28.3832 57.0334 28.3832C52.7376 28.3832 49.651 26.2194 49.3965 22.6873L52.8649 22.4645C53.2149 24.3738 54.6787 25.5829 57.0016 25.5829C58.529 25.5829 60.4382 25.042 60.4382 23.451C60.4064 21.6372 58.2744 21.4145 56.4606 21.0008C52.8649 20.2371 49.8102 19.2507 49.8102 16.0368C49.8102 12.7593 52.4831 10.7546 56.6834 10.7546C60.3427 10.7546 63.1429 12.8866 63.6839 16.2595L60.2154 16.4505Z" fill="#FBFCFF"/>
<path d="M68.5723 7.31799H71.9453V11.1365H76.4001V13.873H71.9453V23.1646C71.9453 24.5329 72.6135 25.2329 73.9181 25.2329H76.3683V28.0013H73.5681C70.3224 28.0013 68.5723 26.3148 68.5723 23.1646V13.873H65.9948V11.1365H68.5723V7.31799Z" fill="#FBFCFF"/>
<path d="M79.2038 16.1959C79.8721 12.7911 82.545 10.7546 86.4271 10.7546C91.0092 10.7546 93.523 13.3002 93.523 17.9142V24.1828C93.523 25.042 93.9049 25.3602 94.5731 25.3602H95.2413V28.0013H94.1913C92.6639 28.0331 90.5956 27.7786 90.4364 25.392C89.6728 27.0149 87.7953 28.3832 84.9951 28.3832C81.5904 28.3832 78.9174 26.5694 78.9174 23.5783C78.9174 20.2053 81.4313 19.2189 85.3134 18.487L90.1501 17.5324C90.1182 14.8276 88.8772 13.4912 86.4271 13.4912C84.4542 13.4912 83.1496 14.5094 82.7041 16.4187L79.2038 16.1959ZM82.4177 23.5146C82.4177 24.7556 83.4996 25.7739 85.727 25.7739C88.2408 25.7421 90.2137 23.9601 90.2137 20.3326V20.1098L86.618 20.7462C84.2951 21.1599 82.4177 21.3826 82.4177 23.5146Z" fill="#FBFCFF"/>
<path d="M104.821 27.1422C100.462 27.1422 97.4069 23.8328 97.4069 19.0279C97.4069 14.1276 100.43 10.7546 104.789 10.7546C107.048 10.7546 108.958 11.9001 109.753 13.7776V11.1365H113.031V26.2194C113.031 30.6742 109.817 33.1562 105.235 33.1562C101.544 33.1562 98.7433 31.247 97.916 28.2877L101.384 28.0649C101.989 29.4969 103.357 30.356 105.267 30.356C108.003 30.356 109.626 29.1468 109.626 26.7921V24.342C108.799 26.0284 106.921 27.1422 104.821 27.1422ZM100.907 18.9961C100.907 22.3054 102.657 24.3738 105.362 24.3738C107.971 24.3738 109.69 22.3054 109.721 18.9961C109.785 15.7186 108.067 13.6503 105.362 13.6503C102.625 13.6503 100.907 15.7186 100.907 18.9961Z" fill="#FBFCFF"/>
<path d="M116.394 19.5689C116.394 14.223 119.544 10.7546 124.444 10.7546C128.485 10.7546 131.89 13.4593 132.049 19.4416L132.081 20.5235H119.957C120.18 23.6737 121.803 25.5193 124.444 25.5193C126.099 25.5193 127.626 24.5329 128.294 22.91L131.826 23.1646C130.84 26.3785 127.881 28.3832 124.444 28.3832C119.544 28.3832 116.394 24.9147 116.394 19.5689ZM120.021 18.0097H128.517C128.135 14.7958 126.353 13.6184 124.444 13.6184C121.994 13.6184 120.403 15.2413 120.021 18.0097Z" fill="#FBFCFF"/>
<path d="M148.989 14.3503L138.679 25.2329H149.244V28.0013H134.893V24.8193L145.171 13.9048H135.274V11.1365H148.989V14.3503Z" fill="#FBFCFF"/>
<path d="M152.005 19.5689C152.005 14.223 155.155 10.7546 160.056 10.7546C164.097 10.7546 167.502 13.4593 167.661 19.4416L167.693 20.5235H155.569C155.792 23.6737 157.415 25.5193 160.056 25.5193C161.71 25.5193 163.238 24.5329 163.906 22.91L167.438 23.1646C166.452 26.3785 163.492 28.3832 160.056 28.3832C155.155 28.3832 152.005 24.9147 152.005 19.5689ZM155.633 18.0097H164.129C163.747 14.7958 161.965 13.6184 160.056 13.6184C157.605 13.6184 156.014 15.2413 155.633 18.0097Z" fill="#FBFCFF"/>
<path d="M171.295 11.1365H174.381L174.477 14.3185C175.081 12.1547 176.354 11.1365 178.518 11.1365H180.141V13.9048H178.486C175.845 13.9048 174.667 15.3686 174.667 18.1688V28.0013H171.295V11.1365Z" fill="#FBFCFF"/>
<path d="M189.981 28.3832C185.112 28.3832 181.93 24.9465 181.93 19.5689C181.93 14.1912 185.112 10.7546 189.981 10.7546C194.817 10.7546 197.999 14.1912 197.999 19.5689C197.999 24.9465 194.817 28.3832 189.981 28.3832ZM185.43 19.5689C185.43 23.2601 187.117 25.4557 189.981 25.4557C192.844 25.4557 194.499 23.2601 194.499 19.5689C194.499 15.8777 192.844 13.6821 189.981 13.6821C187.117 13.6821 185.43 15.8777 185.43 19.5689Z" fill="#FBFCFF"/>
</svg>
